<svg width="21" height="20" viewBox="0 0 21 20" fill="none" xmlns="http://www.w3.org/2000/svg">
<g clip-path="url(#clip0_27_1143)">
<path d="M9.96094 19.9121C12.3047 19.9121 14.5703 19.0723 16.377 17.5391L9.3457 10.6445C9.15039 10.4688 9.11133 10.3027 9.11133 10.0391V0.0292969C4.04297 0.46875 0 4.79492 0 9.95117C0 15.4004 4.52148 19.9121 9.96094 19.9121ZM19.9219 9.95117C19.9219 8.48633 19.5605 6.95312 18.9453 5.70312L10.9668 10.293L17.3438 16.5918C18.9453 14.8438 19.9219 12.4414 19.9219 9.95117ZM10.4199 9.0918L18.3008 4.56055C16.6016 1.89453 13.5254 0.126953 10.4199 0V9.0918Z" fill="#333333"/>
</g>
<defs>
<clipPath id="clip0_27_1143">
<rect width="20.2832" height="19.9121" fill="white"/>
</clipPath>
</defs>
</svg>
