<svg width="14" height="14" viewBox="0 0 14 14" fill="none" xmlns="http://www.w3.org/2000/svg">
<g clip-path="url(#clip0_39_882)">
<path fill-rule="evenodd" clip-rule="evenodd" d="M9.07927 11.6483C9.46892 12.8396 11.0981 12.8846 11.465 11.6483C12.3662 12.4914 13.7961 11.8615 14 13.556C13.9761 13.8224 13.8314 13.9763 13.5443 14H6.99887C6.71176 13.9763 6.56706 13.8224 6.54314 13.556C6.73682 11.9444 8.22592 12.4464 9.07927 11.6483ZM0.694993 4.77324H10.8053V0.84074C10.8059 0.825156 10.8031 0.809638 10.7972 0.795304C10.7913 0.78097 10.7824 0.768178 10.7712 0.757851C10.7611 0.746293 10.7488 0.737133 10.735 0.731001C10.7213 0.724868 10.7064 0.721909 10.6914 0.722327H0.808925C0.793931 0.721746 0.778999 0.724632 0.765208 0.730775C0.751417 0.736918 0.739109 0.746166 0.729172 0.757851C0.71705 0.767401 0.707525 0.780064 0.701532 0.794596C0.69554 0.809128 0.693286 0.825029 0.694993 0.84074V4.77324ZM10.8053 5.37952H0.694993V13.183C0.694591 13.1985 0.697438 13.214 0.703338 13.2283C0.709239 13.2426 0.718052 13.2554 0.729172 13.2658C0.739109 13.2775 0.751417 13.2868 0.765208 13.2929C0.778999 13.2991 0.793931 13.3019 0.808925 13.3014L4.97657 13.2895C5.06722 13.2895 5.15416 13.327 5.21825 13.3936C5.28235 13.4602 5.31837 13.5505 5.31837 13.6448C5.31837 13.739 5.28235 13.8293 5.21825 13.896C5.15416 13.9626 5.06722 14 4.97657 14H0.808925C0.594911 13.9985 0.390154 13.9091 0.239263 13.7513C0.163186 13.6744 0.102794 13.5823 0.061688 13.4806C0.0205823 13.3789 -0.000395423 13.2696 5.64407e-06 13.1593V0.84074C-0.000395423 0.730413 0.0205823 0.621132 0.061688 0.519412C0.102794 0.417692 0.163186 0.325616 0.239263 0.248674C0.313294 0.169604 0.401886 0.106837 0.499757 0.0641142C0.597627 0.0213918 0.702773 -0.000410975 0.808925 5.86605e-06H10.68C10.894 0.00154693 11.0988 0.0909271 11.2497 0.248674C11.3258 0.325616 11.3861 0.417692 11.4273 0.519412C11.4684 0.621132 11.4893 0.730413 11.4889 0.84074V5.90646C11.4889 6.00067 11.4529 6.09103 11.3888 6.15765C11.3247 6.22427 11.2378 6.2617 11.1471 6.2617C11.0565 6.2617 10.9696 6.22427 10.9055 6.15765C10.8414 6.09103 10.8053 6.00067 10.8053 5.90646V5.37952ZM3.72559 1.74897H4.45134C4.45741 1.74863 4.46348 1.74962 4.46916 1.75188C4.47484 1.75414 4.48 1.75761 4.4843 1.76208C4.4886 1.76655 4.49194 1.77191 4.49411 1.77781C4.49629 1.78371 4.49724 1.79002 4.49691 1.79633V4.4334C4.49724 4.43971 4.49629 4.44602 4.49411 4.45192C4.49194 4.45782 4.4886 4.46318 4.4843 4.46765C4.48 4.47212 4.47484 4.4756 4.46916 4.47785C4.46348 4.48011 4.45741 4.48111 4.45134 4.48076H3.72559C3.71943 4.48128 3.71323 4.48042 3.70741 4.47824C3.7016 4.47606 3.6963 4.47261 3.69187 4.46812C3.68745 4.46363 3.684 4.45821 3.68176 4.45222C3.67951 4.44623 3.67853 4.43981 3.67888 4.4334V1.79633C3.67853 1.78992 3.67951 1.7835 3.68176 1.77751C3.684 1.77152 3.68745 1.7661 3.69187 1.76161C3.6963 1.75712 3.7016 1.75367 3.70741 1.75149C3.71323 1.74931 3.71943 1.74845 3.72559 1.74897ZM5.38103 2.75075H6.10792C6.11399 2.7504 6.12006 2.75139 6.12574 2.75365C6.13142 2.75591 6.13657 2.75939 6.14087 2.76386C6.14517 2.76833 6.14852 2.77369 6.15069 2.77959C6.15286 2.78549 6.15382 2.7918 6.15349 2.79811V4.42392C6.15382 4.43023 6.15286 4.43655 6.15069 4.44245C6.14852 4.44835 6.14517 4.45371 6.14087 4.45818C6.13657 4.46265 6.13142 4.46612 6.12574 4.46838C6.12006 4.47064 6.11399 4.47163 6.10792 4.47129H5.38103C5.37496 4.47163 5.36888 4.47064 5.36321 4.46838C5.35753 4.46612 5.35237 4.46265 5.34807 4.45818C5.34377 4.45371 5.34043 4.44835 5.33825 4.44245C5.33608 4.43655 5.33513 4.43023 5.33545 4.42392V2.79811C5.33625 2.78582 5.34131 2.77425 5.34969 2.76554C5.35807 2.75683 5.3692 2.75158 5.38103 2.75075ZM8.69418 2.75075H9.41993C9.42609 2.75023 9.43229 2.75109 9.4381 2.75327C9.44392 2.75545 9.44922 2.7589 9.45365 2.76339C9.45807 2.76788 9.46152 2.7733 9.46376 2.77929C9.466 2.78528 9.46698 2.79169 9.46664 2.79811V4.42392C9.46698 4.43034 9.466 4.43676 9.46376 4.44275C9.46152 4.44874 9.45807 4.45416 9.45365 4.45865C9.44922 4.46314 9.44392 4.46659 9.4381 4.46877C9.43229 4.47095 9.42609 4.47181 9.41993 4.47129H8.69418C8.68811 4.47163 8.68204 4.47064 8.67636 4.46838C8.67068 4.46612 8.66552 4.46265 8.66122 4.45818C8.65692 4.45371 8.65358 4.44835 8.6514 4.44245C8.64923 4.43655 8.64828 4.43023 8.64861 4.42392V2.79811C8.64941 2.78582 8.65446 2.77425 8.66284 2.76554C8.67122 2.75683 8.68235 2.75158 8.69418 2.75075ZM7.0376 1.74897H7.76335C7.76951 1.74845 7.77571 1.74931 7.78153 1.75149C7.78734 1.75367 7.79264 1.75712 7.79707 1.76161C7.8015 1.7661 7.80495 1.77152 7.80719 1.77751C7.80943 1.7835 7.81041 1.78992 7.81006 1.79633V4.4334C7.81041 4.43981 7.80943 4.44623 7.80719 4.45222C7.80495 4.45821 7.8015 4.46363 7.79707 4.46812C7.79264 4.47261 7.78734 4.47606 7.78153 4.47824C7.77571 4.48042 7.76951 4.48128 7.76335 4.48076H7.0376C7.03153 4.48111 7.02546 4.48011 7.01978 4.47785C7.0141 4.4756 7.00895 4.47212 7.00465 4.46765C7.00035 4.46318 6.997 4.45782 6.99483 4.45192C6.99265 4.44602 6.9917 4.43971 6.99203 4.4334V1.79633C6.9917 1.79002 6.99265 1.78371 6.99483 1.77781C6.997 1.77191 7.00035 1.76655 7.00465 1.76208C7.00895 1.75761 7.0141 1.75414 7.01978 1.75188C7.02546 1.74962 7.03153 1.74863 7.0376 1.74897ZM2.07016 2.11131H2.7959C2.80217 2.11078 2.80847 2.11166 2.81437 2.11391C2.82028 2.11616 2.82564 2.11972 2.83008 2.12434C2.83453 2.12896 2.83795 2.13453 2.84012 2.14067C2.84228 2.1468 2.84313 2.15335 2.84262 2.15986V4.4334C2.84296 4.43981 2.84198 4.44623 2.83974 4.45222C2.8375 4.45821 2.83405 4.46363 2.82962 4.46812C2.8252 4.47261 2.8199 4.47606 2.81408 4.47824C2.80827 4.48042 2.80207 4.48128 2.7959 4.48076H2.07016C2.06408 4.48111 2.05801 4.48011 2.05233 4.47785C2.04666 4.4756 2.0415 4.47212 2.0372 4.46765C2.0329 4.46318 2.02955 4.45782 2.02738 4.45192C2.02521 4.44602 2.02425 4.43971 2.02458 4.4334V2.15986C2.01547 2.13026 2.04281 2.11131 2.07016 2.11131ZM4.53109 9.68976L6.48389 9.72529C6.48448 10.081 6.40106 10.4315 6.24095 10.7459C6.08085 11.0604 5.84895 11.3291 5.5656 11.5287L4.53109 9.68384V9.68976ZM4.424 9.06928L4.40121 6.70101V6.54352L4.55046 6.55536C4.7331 6.56854 4.91402 6.60067 5.0905 6.65128C5.61448 6.80383 6.07875 7.1244 6.41713 7.56731C6.75551 8.01021 6.95072 8.55284 6.97494 9.11783L6.98633 9.27295H6.83594L4.57325 9.2019H4.44337L4.42058 9.05862L4.424 9.06928ZM4.69971 8.926L6.68783 8.9852C6.64649 8.5895 6.51278 8.21029 6.29834 7.88051C6.0839 7.55074 5.79521 7.28039 5.45736 7.09296C5.24846 6.98222 5.02564 6.9025 4.79542 6.85613C4.75668 6.84903 4.7168 6.84192 4.68148 6.83837L4.70427 8.91652L4.69971 8.926ZM3.8737 9.47307L4.98796 11.4861C4.64874 11.6891 4.26405 11.7956 3.87261 11.795C3.48117 11.7944 3.0968 11.6867 2.75816 11.4826C2.41953 11.2785 2.13859 10.9854 1.94361 10.6326C1.74862 10.2798 1.64648 9.8799 1.64747 9.47307C1.64669 8.87464 1.8688 8.29913 2.26724 7.86714C2.66568 7.43514 3.20954 7.18019 3.78484 7.15572L3.8737 9.47307ZM8.73975 9.46359C8.69088 9.46624 8.64345 9.48172 8.60189 9.50859C8.5808 9.5221 8.56412 9.54191 8.55404 9.56543C8.54191 9.59493 8.53645 9.62694 8.53809 9.65897C8.56034 9.81763 8.62068 9.9679 8.71355 10.0959L9.08269 10.7057C9.21817 10.9514 9.38402 11.1775 9.57601 11.3783C9.76194 11.5664 10.0115 11.671 10.271 11.6696C10.4074 11.673 10.543 11.648 10.67 11.5961C10.797 11.5443 10.9127 11.4666 11.0104 11.3677C11.2087 11.152 11.3792 10.9104 11.5174 10.6489L11.9321 9.93843C12.0164 9.7395 12.0461 9.61753 12.0142 9.55832C11.9982 9.52517 11.9412 9.51333 11.849 9.51806C11.7739 9.53799 11.6949 9.53553 11.6211 9.51096L11.7886 9.01954C11.0287 9.01007 10.5091 8.87271 9.89502 8.46419C9.69222 8.33038 9.63184 8.17644 9.43018 8.19183C9.2838 8.21863 9.14981 8.29429 9.04851 8.40735C8.94038 8.53556 8.86479 8.68983 8.82862 8.85613L8.95166 9.46951C8.88302 9.48883 8.81067 9.48883 8.74203 9.46951L8.73975 9.46359ZM12.0438 9.28716C12.0843 9.29792 12.1221 9.31768 12.1545 9.34507C12.187 9.37247 12.2133 9.40684 12.2318 9.44583C12.2933 9.57609 12.2682 9.7691 12.152 10.045L12.1452 10.0604L11.7236 10.7756C11.5749 11.0579 11.3902 11.318 11.1745 11.5489C11.0553 11.6702 10.914 11.7656 10.7588 11.8295C10.6037 11.8933 10.4378 11.9243 10.271 11.9207C9.95134 11.9234 9.64337 11.7959 9.41309 11.5654C9.20405 11.3504 9.02393 11.1071 8.87761 10.8419L8.50961 10.2321C8.39072 10.0674 8.31744 9.87211 8.29769 9.66726C8.29438 9.59569 8.30726 9.52431 8.33529 9.45886C8.36508 9.3934 8.41158 9.33769 8.46973 9.29781C8.50006 9.27711 8.53255 9.26003 8.56657 9.2469C8.54274 8.94836 8.53779 8.64853 8.55176 8.34932C8.55994 8.2653 8.5748 8.18213 8.5962 8.10066C8.69889 7.75416 8.92074 7.45909 9.21941 7.27176C9.32704 7.20251 9.44166 7.14572 9.5612 7.10243C10.2699 6.836 11.2087 6.98402 11.7111 7.54648C11.9336 7.80635 12.0614 8.13903 12.0723 8.48668L12.0483 9.2836L12.0438 9.28716Z" fill="black"/>
</g>
<defs>
<clipPath id="clip0_39_882">
<rect width="14" height="14" fill="white"/>
</clipPath>
</defs>
</svg>
