<svg width="17" height="21" viewBox="0 0 17 21" fill="none" xmlns="http://www.w3.org/2000/svg">
<g clip-path="url(#clip0_27_1152)">
<path d="M5.83984 6.24023C5.47852 6.24023 5.17578 5.9375 5.17578 5.57617C5.17578 5.20508 5.47852 4.91211 5.83984 4.91211H13.3789C13.7402 4.91211 14.043 5.20508 14.043 5.57617C14.043 5.9375 13.7402 6.24023 13.3789 6.24023H5.83984ZM5.83984 9.01367C5.47852 9.01367 5.17578 8.71094 5.17578 8.33984C5.17578 7.97852 5.47852 7.68555 5.83984 7.68555H11.5625C11.9336 7.68555 12.2266 7.97852 12.2266 8.33984C12.2266 8.71094 11.9336 9.01367 11.5625 9.01367H5.83984ZM2.99805 20.9277H15.6445C16.0742 20.9277 16.4258 20.5859 16.4258 20.1465C16.4258 19.8047 16.1914 19.502 15.8789 19.3945C14.6484 18.9062 14.3945 17.3145 15.6055 16.0938C15.9766 15.7227 16.4258 15.2441 16.4258 14.2676V3.06641C16.4258 1.03516 15.4199 0 13.3984 0H3.02734C1.00586 0 0 1.02539 0 3.06641V17.9102C0 19.9219 1.01562 20.9277 2.99805 20.9277ZM3.08594 19.3555C2.09961 19.3555 1.57227 18.8281 1.57227 17.9004C1.57227 17.0215 2.19727 16.4551 3.17383 16.4551H13.1934C13.3203 16.4551 13.4375 16.4453 13.5352 16.4258C13.0762 17.4414 13.1543 18.5156 13.6719 19.3555H3.08594ZM2.79297 14.9707C2.49023 14.9707 2.23633 14.7168 2.23633 14.4043V2.07031C2.23633 1.75781 2.49023 1.51367 2.79297 1.51367C3.0957 1.51367 3.35938 1.75781 3.35938 2.07031V14.4043C3.35938 14.7168 3.0957 14.9707 2.79297 14.9707Z" fill="#333333"/>
</g>
<defs>
<clipPath id="clip0_27_1152">
<rect width="16.7871" height="20.9277" fill="white"/>
</clipPath>
</defs>
</svg>
