<svg width="80" height="80" viewBox="0 0 80 80" fill="none" xmlns="http://www.w3.org/2000/svg">
<g clip-path="url(#clip0_36_400)">
<path d="M3.20802 26.0541C5.33335 26.0541 6.45616 24.8289 6.45616 22.7054V13.0679C6.45616 8.82082 8.66168 6.65645 12.6717 6.65645H22.376C24.5013 6.65645 25.6642 5.47214 25.6642 3.34863C25.6642 1.2251 24.5013 0.081665 22.376 0.081665H12.5915C4.21053 0.081665 0 4.28788 0 12.7003V22.7054C0 24.8289 1.16291 26.0541 3.20802 26.0541ZM75.2683 26.0541C77.3937 26.0541 78.5164 24.8289 78.5164 22.7054V12.7003C78.5164 4.28788 74.3058 0.081665 65.9249 0.081665H56.1003C54.0151 0.081665 52.8522 1.2251 52.8522 3.34863C52.8522 5.47214 54.0151 6.65645 56.1003 6.65645H65.8046C69.7746 6.65645 72.0601 8.82082 72.0601 13.0679V22.7054C72.0601 24.8289 73.223 26.0541 75.2683 26.0541ZM12.5915 80H22.376C24.5013 80 25.6642 78.8157 25.6642 76.7328C25.6642 74.6093 24.5013 73.4251 22.376 73.4251H12.6717C8.66168 73.4251 6.45616 71.2606 6.45616 67.0137V57.3761C6.45616 55.2116 5.29323 54.0274 3.20802 54.0274C1.12281 54.0274 0 55.2116 0 57.3761V67.3403C0 75.7936 4.21053 80 12.5915 80ZM56.1003 80H65.9249C74.3058 80 78.5164 75.7526 78.5164 67.3403V57.3761C78.5164 55.2116 77.3535 54.0274 75.2683 54.0274C73.1832 54.0274 72.0601 55.2116 72.0601 57.3761V67.0137C72.0601 71.2606 69.7746 73.4251 65.8046 73.4251H56.1003C54.0151 73.4251 52.8522 74.6093 52.8522 76.7328C52.8522 78.8157 54.0151 80 56.1003 80Z" fill="#333333"/>
<path d="M21.7746 59.622H35.7295C36.7321 59.622 37.494 58.8463 37.494 57.8252V43.614C37.494 42.5928 36.7321 41.8171 35.7295 41.8171H21.7746C20.7721 41.8171 20.0103 42.5928 20.0103 43.614V57.8252C20.0103 58.8463 20.7721 59.622 21.7746 59.622ZM23.499 56.0693V45.3699H34.0052V56.0693H23.499ZM26.5466 52.9246H30.9576V48.4736H26.5466V52.9246ZM21.7746 38.2643H35.7295C36.7321 38.2643 37.494 37.4884 37.494 36.5083V22.2562C37.494 21.2761 36.7321 20.4594 35.7295 20.4594H21.7746C20.7721 20.4594 20.0103 21.2761 20.0103 22.2562V36.5083C20.0103 37.4884 20.7721 38.2643 21.7746 38.2643ZM23.499 34.7115V24.0122H34.0052V34.7115H23.499ZM26.5466 31.6078H30.9576V27.1158H26.5466V31.6078ZM42.707 38.2643H56.6618C57.6645 38.2643 58.4263 37.4884 58.4263 36.5083V22.2562C58.4263 21.2761 57.6645 20.4594 56.6618 20.4594H42.707C41.7043 20.4594 40.9426 21.2761 40.9426 22.2562V36.5083C40.9426 37.4884 41.7043 38.2643 42.707 38.2643ZM44.4313 34.7115V24.0122H54.9376V34.7115H44.4313ZM47.5192 31.6078H51.8899V27.1158H47.5192V31.6078ZM41.4641 59.0914H45.8348V54.6399H41.4641V59.0914ZM53.534 59.0914H57.9052V54.6399H53.534V59.0914ZM47.4789 52.9246H51.8899V48.4736H47.4789V52.9246ZM41.4641 46.7582H45.8348V42.3072H41.4641V46.7582ZM53.534 46.7582H57.9052V42.3072H53.534V46.7582Z" fill="#333333"/>
</g>
<defs>
<clipPath id="clip0_36_400">
<rect width="80" height="80" fill="white"/>
</clipPath>
</defs>
</svg>
