<svg width="14" height="14" viewBox="0 0 14 14" fill="none" xmlns="http://www.w3.org/2000/svg">
<g clip-path="url(#clip0_39_890)">
<path fill-rule="evenodd" clip-rule="evenodd" d="M0.374456 6.38477H2.30893V6.26172V4.22917C2.30893 3.06592 2.85053 2.00977 3.72124 1.243V1.24186C4.59195 0.476237 5.79565 0 7.11856 0C8.44017 0 9.64257 0.476237 10.5146 1.24186L10.5159 1.243C11.3866 2.00863 11.9282 3.06592 11.9282 4.22917V6.26172V6.38363H13.6268C13.8329 6.38363 14.0013 6.53174 14.0013 6.71289V13.6696C14.0013 13.8507 13.8329 13.9989 13.6268 13.9989H0.374456C0.168441 13.9989 0 13.8507 0 13.6696V6.71403C0 6.53288 0.168441 6.38477 0.374456 6.38477ZM3.3416 9.77425C3.90782 9.77425 4.36779 10.1776 4.36779 10.6755C4.36779 11.1733 3.90912 11.5778 3.3416 11.5778C2.77538 11.5778 2.31541 11.1745 2.31541 10.6755C2.31541 10.1776 2.77409 9.77425 3.3416 9.77425ZM10.6597 9.77425C11.2259 9.77425 11.6846 10.1776 11.6846 10.6755C11.6846 11.1733 11.2259 11.5778 10.6597 11.5778C10.0935 11.5778 9.6335 11.1745 9.6335 10.6755C9.6335 10.1776 10.0935 9.77425 10.6597 9.77425ZM7.00065 9.77425C7.56687 9.77425 8.02554 10.1776 8.02554 10.6755C8.02554 11.1733 7.56687 11.5778 7.00065 11.5778C6.43443 11.5778 5.97446 11.1745 5.97446 10.6755C5.97446 10.1776 6.43313 9.77425 7.00065 9.77425ZM2.01999 9.11003H11.9787C12.5099 9.11003 12.944 9.4917 12.944 9.95768V11.3932C12.944 11.8592 12.5099 12.2409 11.9787 12.2409H2.01999C1.49005 12.2409 1.05599 11.8592 1.05599 11.3932V9.95768C1.05599 9.4917 1.49005 9.11003 2.01999 9.11003ZM4.17733 6.38477H10.0585V6.26172V4.20524C10.0585 3.4943 9.72809 2.84717 9.19556 2.37891C8.66303 1.91064 7.92707 1.61898 7.11985 1.61898C6.31134 1.61898 5.57538 1.90951 5.04285 2.37777C4.51032 2.84603 4.17992 3.49316 4.17992 4.2041V6.26058L4.17733 6.38477Z" fill="black"/>
</g>
<defs>
<clipPath id="clip0_39_890">
<rect width="14" height="14" fill="white"/>
</clipPath>
</defs>
</svg>
