<svg width="14" height="14" viewBox="0 0 14 14" fill="none" xmlns="http://www.w3.org/2000/svg">
<g clip-path="url(#clip0_39_902)">
<path d="M0.561404 4.55945C0.933336 4.55945 1.12983 4.34505 1.12983 3.97344V2.28687C1.12983 1.54363 1.51579 1.16487 2.21755 1.16487H3.91579C4.28773 1.16487 4.49123 0.957616 4.49123 0.586001C4.49123 0.214384 4.28773 0.0142822 3.91579 0.0142822H2.20351C0.736843 0.0142822 0 0.75037 0 2.22255V3.97344C0 4.34505 0.203509 4.55945 0.561404 4.55945ZM13.172 4.55945C13.5439 4.55945 13.7404 4.34505 13.7404 3.97344V2.22255C13.7404 0.75037 13.0035 0.0142822 11.5369 0.0142822H9.81755C9.45264 0.0142822 9.24914 0.214384 9.24914 0.586001C9.24914 0.957616 9.45264 1.16487 9.81755 1.16487H11.5158C12.2105 1.16487 12.6105 1.54363 12.6105 2.28687V3.97344C12.6105 4.34505 12.814 4.55945 13.172 4.55945ZM2.20351 14H3.91579C4.28773 14 4.49123 13.7927 4.49123 13.4282C4.49123 13.0566 4.28773 12.8494 3.91579 12.8494H2.21755C1.51579 12.8494 1.12983 12.4706 1.12983 11.7274V10.0408C1.12983 9.66202 0.926315 9.45478 0.561404 9.45478C0.196492 9.45478 0 9.66202 0 10.0408V11.7845C0 13.2639 0.736843 14 2.20351 14ZM9.81755 14H11.5369C13.0035 14 13.7404 13.2567 13.7404 11.7845V10.0408C13.7404 9.66202 13.5369 9.45478 13.172 9.45478C12.8071 9.45478 12.6105 9.66202 12.6105 10.0408V11.7274C12.6105 12.4706 12.2105 12.8494 11.5158 12.8494H9.81755C9.45264 12.8494 9.24914 13.0566 9.24914 13.4282C9.24914 13.7927 9.45264 14 9.81755 14Z" fill="black"/>
<path d="M4.19666 6.52475C4.52649 6.52475 4.76508 6.28891 4.76508 5.94588V4.97396C4.76508 4.63092 4.52649 4.39509 4.19666 4.39509C3.86684 4.39509 3.63525 4.63092 3.63525 4.97396V5.94588C3.63525 6.28891 3.86684 6.52475 4.19666 6.52475ZM6.30895 8.21131C6.32298 8.21131 6.34403 8.21131 6.36508 8.21131C7.07386 8.21131 7.45985 7.81826 7.45985 7.09646V4.84531C7.45985 4.5666 7.2774 4.38794 7.0107 4.38794C6.72999 4.38794 6.54754 4.5666 6.54754 4.84531V7.16078C6.54754 7.23224 6.50543 7.26798 6.44227 7.26798H6.19666C5.94403 7.26798 5.74754 7.46809 5.74754 7.72532C5.74754 8.03268 5.95105 8.21131 6.30895 8.21131ZM9.52302 6.52475C9.84581 6.52475 10.0773 6.28891 10.0773 5.94588V4.97396C10.0773 4.63092 9.84581 4.39509 9.52302 4.39509C9.18614 4.39509 8.95453 4.63092 8.95453 4.97396V5.94588C8.95453 6.28891 9.18614 6.52475 9.52302 6.52475ZM6.82824 10.6126C7.67737 10.6126 8.53351 10.2409 9.14403 9.61915C9.22825 9.54055 9.27036 9.41908 9.27036 9.27615C9.27036 9.00458 9.07389 8.81161 8.81419 8.81161C8.68089 8.81161 8.58266 8.86166 8.44929 9.00458C8.06333 9.4119 7.45281 9.69065 6.82824 9.69065C6.23877 9.69065 5.62123 9.42625 5.21421 9.00458C5.10193 8.89737 5.0107 8.81161 4.84227 8.81161C4.58262 8.81161 4.38614 9.00458 4.38614 9.27615C4.38614 9.39763 4.42824 9.51194 4.51947 9.61205C5.08789 10.2695 5.97912 10.6126 6.82824 10.6126Z" fill="black"/>
</g>
<defs>
<clipPath id="clip0_39_902">
<rect width="14" height="14" fill="white"/>
</clipPath>
</defs>
</svg>
