<svg width="10" height="12" viewBox="0 0 10 12" fill="none" xmlns="http://www.w3.org/2000/svg">
<path d="M9.79582 4.90092V10.0547C9.79582 11.1185 9.21635 11.6557 8.06293 11.6557H1.7329C0.57947 11.6557 0 11.1185 0 10.0547V4.90092C0 3.83712 0.57947 3.30005 1.7329 3.30005H3.39404V4.13147H1.74393C1.19206 4.13147 0.888524 4.41034 0.888524 4.9474V10.0083C0.888524 10.5453 1.19206 10.8242 1.74393 10.8242H8.04638C8.59274 10.8242 8.90728 10.5453 8.90728 10.0083V4.9474C8.90728 4.41034 8.59274 4.13147 8.04638 4.13147H6.40176V3.30005H8.06293C9.21635 3.30005 9.79582 3.83712 9.79582 4.90092Z" fill="black"/>
<path d="M4.89537 7.61197C5.13268 7.61197 5.33687 7.42604 5.33687 7.20918V1.90557L5.30376 1.13095L5.67354 1.4976L6.51235 2.33419C6.58966 2.41682 6.70003 2.45814 6.8104 2.45814C7.03667 2.45814 7.21327 2.30321 7.21327 2.09148C7.21327 1.98303 7.1636 1.90041 7.08081 1.82295L5.21546 0.139431C5.10508 0.0361494 5.01127 0 4.89537 0C4.785 0 4.69118 0.0361494 4.57528 0.139431L2.70994 1.82295C2.62716 1.90041 2.58301 1.98303 2.58301 2.09148C2.58301 2.30321 2.74857 2.45814 2.98036 2.45814C3.08521 2.45814 3.20663 2.41682 3.28389 2.33419L4.11723 1.4976L4.4925 1.13095L4.45939 1.90557V7.20918C4.45939 7.42604 4.65807 7.61197 4.89537 7.61197Z" fill="black"/>
</svg>
