<svg width="8" height="12" viewBox="0 0 8 12" fill="none" xmlns="http://www.w3.org/2000/svg">
<g clip-path="url(#clip0_50_1861)">
<path d="M1.28388 11.6844H6.50499C7.34382 11.6844 7.78889 11.208 7.78889 10.267V6.16377C7.78889 5.22284 7.34382 4.75237 6.50499 4.75237H1.28388C0.445079 4.75237 0 5.22284 0 6.16377V10.267C0 11.208 0.445079 11.6844 1.28388 11.6844ZM0.998571 5.21093H1.90585V3.19802C1.90585 1.69727 2.82454 0.899257 3.89159 0.899257C4.95863 0.899257 5.88872 1.69727 5.88872 3.19802V5.21093H6.79031V3.32904C6.79031 1.08983 5.38659 0 3.89159 0C2.40228 0 0.998571 1.08983 0.998571 3.32904V5.21093Z" fill="#C1C1C1"/>
</g>
<defs>
<clipPath id="clip0_50_1861">
<rect width="8" height="12" fill="white"/>
</clipPath>
</defs>
</svg>
