<svg width="11" height="12" viewBox="0 0 11 12" fill="none" xmlns="http://www.w3.org/2000/svg">
<g clip-path="url(#clip0_50_1895)">
<path d="M1.18139 11.6956H5.98567C6.75753 11.6956 7.16707 11.2183 7.16707 10.2755V6.16409C7.16707 5.22724 6.75753 4.74987 5.98567 4.74987H1.18139C0.409546 4.74987 0 5.22724 0 6.16409V10.2755C0 11.2183 0.409546 11.6956 1.18139 11.6956ZM5.47634 5.21531H6.30595V3.20437C6.30595 1.69468 7.15653 0.901043 8.13841 0.901043C9.12029 0.901043 9.97086 1.69468 9.97086 3.20437V4.52908C9.97086 4.88115 10.1546 5.06016 10.3909 5.06016C10.6167 5.06016 10.8057 4.89905 10.8057 4.52908V3.32968C10.8057 1.08602 9.5088 0 8.13841 0C6.76275 0 5.47634 1.08602 5.47634 3.32968V5.21531Z" fill="#C1C1C1"/>
</g>
<defs>
<clipPath id="clip0_50_1895">
<rect width="11" height="12" fill="white"/>
</clipPath>
</defs>
</svg>
