<svg width="20" height="20" viewBox="0 0 20 20" fill="none" xmlns="http://www.w3.org/2000/svg">
<g clip-path="url(#clip0_39_1411)">
<path d="M11.9719 17.0897H7.71451V11.2646C7.71451 10.8592 7.97029 10.5948 8.34982 10.5948H11.3448C11.7245 10.5948 11.9719 10.8592 11.9719 11.2646V17.0897ZM2.57426 16.561C2.57426 17.7859 3.26733 18.5085 4.43069 18.5085H15.2805C16.4439 18.5085 17.1287 17.7859 17.1287 16.561V9.58142L10.3465 3.50958C10.033 3.22758 9.66167 3.2364 9.35641 3.50958L2.57426 9.58142V16.561ZM0 8.70015C0 9.06146 0.264026 9.40518 0.70957 9.40518C0.940592 9.40518 1.13036 9.27298 1.30363 9.12318L9.56273 1.72064C9.74421 1.5444 9.96701 1.5444 10.1485 1.72064L18.4076 9.12318C18.5726 9.27298 18.7623 9.40518 18.9934 9.40518C19.3812 9.40518 19.6947 9.14962 19.6947 8.72659C19.6947 8.46221 19.6122 8.28596 19.4389 8.12734L10.8498 0.416391C10.2392 -0.138797 9.48019 -0.138797 8.86139 0.416391L0.264026 8.12734C0.0825081 8.28596 0 8.49746 0 8.70015ZM15.0578 4.72571L17.1287 6.59396V2.52258C17.1287 2.13483 16.8977 1.88808 16.5346 1.88808H15.6518C15.297 1.88808 15.0578 2.13483 15.0578 2.52258V4.72571Z" fill="#333333"/>
</g>
<defs>
<clipPath id="clip0_39_1411">
<rect width="20" height="20" fill="white"/>
</clipPath>
</defs>
</svg>
