<svg width="14" height="14" viewBox="0 0 14 14" fill="none" xmlns="http://www.w3.org/2000/svg">
<g clip-path="url(#clip0_39_852)">
<path d="M6.8753 13.9932C10.6365 13.9932 13.7506 10.8173 13.7506 6.99659C13.7506 3.16904 10.6298 0 6.86856 0C3.11411 0 0 3.16904 0 6.99659C0 10.8173 3.12085 13.9932 6.8753 13.9932ZM6.8753 12.8271C3.69379 12.8271 1.15262 10.2342 1.15262 6.99659C1.15262 3.75895 3.68705 1.1661 6.86856 1.1661C10.05 1.1661 12.6047 3.75895 12.6047 6.99659C12.6047 10.2342 10.0568 12.8271 6.8753 12.8271Z" fill="black"/>
<path d="M3.78831 10.4742H9.94915C10.2188 10.4742 10.3468 10.289 10.3468 10.0421C10.3468 9.28761 9.23463 7.33949 6.86872 7.33949C4.50281 7.33949 3.39062 9.28761 3.39062 10.0421C3.39062 10.289 3.5187 10.4742 3.78831 10.4742ZM6.86872 6.78389C7.82588 6.79076 8.601 5.95391 8.601 4.8564C8.601 3.8275 7.82588 2.97693 6.86872 2.97693C5.91157 2.97693 5.13641 3.8275 5.13641 4.8564C5.13641 5.95391 5.91157 6.77704 6.86872 6.78389Z" fill="black"/>
</g>
<defs>
<clipPath id="clip0_39_852">
<rect width="14" height="14" fill="white"/>
</clipPath>
</defs>
</svg>
