<svg width="14" height="14" viewBox="0 0 14 14" fill="none" xmlns="http://www.w3.org/2000/svg">
<g clip-path="url(#clip0_39_867)">
<path d="M6.8753 13.9932C10.6365 13.9932 13.7506 10.8173 13.7506 6.99659C13.7506 3.16904 10.6298 0 6.86856 0C3.11411 0 0 3.16904 0 6.99659C0 10.8173 3.12085 13.9932 6.8753 13.9932ZM6.8753 12.8271C3.69379 12.8271 1.15262 10.2342 1.15262 6.99659C1.15262 3.75895 3.68705 1.1661 6.86856 1.1661C10.05 1.1661 12.6047 3.75895 12.6047 6.99659C12.6047 10.2342 10.0568 12.8271 6.8753 12.8271Z" fill="black"/>
<path d="M3.90965 9.47281H9.84804C10.1918 9.47281 10.394 9.28765 10.394 9.02011C10.394 8.63597 10.0233 8.29987 9.69302 7.95688C9.43688 7.68941 9.38966 7.1475 9.36275 6.71535C9.32899 5.2543 8.94481 4.25283 7.96069 3.88242C7.81243 3.3954 7.42148 2.99756 6.87547 2.99756C6.32949 2.99756 5.94528 3.3954 5.79025 3.88242C4.80614 4.25283 4.42193 5.2543 4.39497 6.71535C4.36127 7.1475 4.30734 7.68941 4.05795 7.95688C3.74114 8.30675 3.35693 8.63597 3.35693 9.02011C3.35693 9.28765 3.55915 9.47281 3.90965 9.47281ZM6.87547 11.0574C7.50907 11.0574 7.97415 10.5978 8.0146 10.0422H5.73633C5.78351 10.5978 6.24187 11.0574 6.87547 11.0574Z" fill="black"/>
</g>
<defs>
<clipPath id="clip0_39_867">
<rect width="14" height="14" fill="white"/>
</clipPath>
</defs>
</svg>
