<svg width="22" height="20" viewBox="0 0 22 20" fill="none" xmlns="http://www.w3.org/2000/svg">
<g clip-path="url(#clip0_27_1161)">
<path d="M20.709 9.9707C20.709 15.4199 16.1973 19.9316 10.748 19.9316C5.30859 19.9316 0.787109 15.4199 0.787109 9.9707C0.787109 4.53125 5.29883 0.00976562 10.7383 0.00976562C16.1875 0.00976562 20.709 4.53125 20.709 9.9707ZM5.55273 14.4531C5.55273 14.8242 5.73828 15.0879 6.14844 15.0879H15.3476C15.7578 15.0879 15.9433 14.8242 15.9433 14.4531C15.9433 13.3594 14.2832 10.498 10.748 10.498C7.21289 10.498 5.55273 13.3594 5.55273 14.4531ZM8.16016 6.83594C8.16016 8.45703 9.32227 9.6582 10.748 9.66797C12.1738 9.67773 13.3359 8.45703 13.3359 6.83594C13.3359 5.33203 12.1738 4.08203 10.748 4.08203C9.32227 4.08203 8.16016 5.33203 8.16016 6.83594Z" fill="#333333"/>
</g>
<defs>
<clipPath id="clip0_27_1161">
<rect width="20.2832" height="19.9316" fill="white" transform="translate(0.787109)"/>
</clipPath>
</defs>
</svg>
