<svg width="14" height="14" viewBox="0 0 14 14" fill="none" xmlns="http://www.w3.org/2000/svg">
<g clip-path="url(#clip0_39_826)">
<path d="M12.4717 10.1974C12.4924 10.1974 12.5126 10.1995 12.5324 10.2034C12.663 9.97577 12.7821 9.73685 12.8896 9.48722C12.8917 9.48221 12.8938 9.47742 12.8963 9.47264C13.0579 9.09153 13.1798 8.69573 13.2619 8.28557C13.3256 7.96735 13.3649 7.64105 13.3799 7.30677H11.4552C11.4202 8.28363 11.1285 9.24705 10.5849 10.1974H12.4717ZM12.1362 10.811H10.1977C9.60935 11.6633 8.81672 12.5052 7.82357 13.3366C7.97931 13.3172 8.13335 13.2924 8.28557 13.2619C8.70097 13.1789 9.10178 13.0549 9.48745 12.8901L9.48722 12.8896C9.87926 12.721 10.2444 12.5237 10.582 12.2973C10.9203 12.0703 11.2338 11.8125 11.522 11.5231L11.5231 11.522C11.7461 11.2999 11.9503 11.0628 12.1362 10.811ZM6.17632 13.3365C5.18328 12.5052 4.39064 11.6633 3.80218 10.811H1.86406C2.04989 11.0628 2.25405 11.2999 2.47691 11.522L2.47805 11.5232C2.7663 11.8126 3.07984 12.0703 3.418 12.2973C3.75547 12.5237 4.12062 12.721 4.51278 12.8896C4.51768 12.8918 4.52258 12.8939 4.52736 12.8963C4.90847 13.058 5.30428 13.1798 5.71455 13.2619C5.86676 13.2924 6.02057 13.3172 6.17632 13.3365ZM1.46427 10.1974H3.41503C2.87146 9.24705 2.57968 8.28363 2.54493 7.30677H0.620366C0.635178 7.64105 0.674485 7.96724 0.738173 8.28545C0.821231 8.70085 0.945304 9.10167 1.11005 9.48733L1.11051 9.48722C1.21703 9.73468 1.33484 9.97155 1.46427 10.1974ZM0.620366 6.69323H2.55689C2.6281 5.7362 2.94563 4.77266 3.51473 3.80264H1.46427C1.33484 4.02845 1.21703 4.26532 1.11051 4.5129C1.10834 4.51779 1.10606 4.52269 1.10378 4.52736C0.942114 4.90859 0.820319 5.30439 0.738173 5.71455C0.674485 6.03276 0.635178 6.35907 0.620366 6.69323ZM1.86406 3.1891H3.9078C4.48977 2.35044 5.25927 1.50688 6.2195 0.65842C6.04906 0.678358 5.88078 0.704905 5.71466 0.738173C5.29915 0.821231 4.89844 0.945304 4.51278 1.11005L4.51289 1.11039C4.12074 1.27913 3.75558 1.47635 3.41811 1.70285C3.07996 1.9298 2.76641 2.18763 2.47816 2.47691L2.47691 2.47805C2.25405 2.70022 2.04989 2.9372 1.86406 3.1891ZM7.78039 0.658306C8.74061 1.50677 9.51012 2.35033 10.0922 3.18899H12.1361C11.9502 2.9372 11.7459 2.7001 11.523 2.47805L11.5218 2.47691C11.2337 2.18752 10.9202 1.9298 10.5819 1.70285C10.2443 1.47635 9.87915 1.27913 9.4871 1.11039C9.48221 1.10834 9.47731 1.10606 9.47264 1.10367C9.09141 0.942114 8.69561 0.820205 8.28545 0.738173C8.11934 0.704905 7.95083 0.678358 7.78039 0.658306ZM12.5357 3.80264H10.4852C11.0544 4.77266 11.3719 5.7362 11.4431 6.69323H13.3797C13.3648 6.35895 13.3254 6.03276 13.2618 5.71455C13.1787 5.29915 13.0547 4.89833 12.8899 4.51267L12.8895 4.5129C12.783 4.26532 12.6653 4.02845 12.5357 3.80264ZM5.5948 0.136492C6.04963 0.0454593 6.51812 0 7.00006 0C7.48199 0 7.95037 0.0454593 8.4052 0.136492C8.85341 0.226271 9.28909 0.36094 9.71235 0.540613C9.71816 0.542664 9.72374 0.544829 9.72921 0.547221C10.1511 0.728831 10.5492 0.944279 10.9222 1.19482C11.2945 1.44456 11.639 1.72768 11.9551 2.04499C12.2724 2.36115 12.5556 2.70569 12.8052 3.07779C13.0555 3.45092 13.2712 3.84889 13.4528 4.27101L13.4523 4.27113L13.4528 4.27215C13.6359 4.70031 13.7728 5.14124 13.8635 5.5948C13.9545 6.04963 13.9999 6.51812 13.9999 7.00006C13.9999 7.48199 13.9545 7.9506 13.8635 8.40542C13.7738 8.85341 13.6389 9.28932 13.4594 9.71247C13.4573 9.71816 13.4552 9.72374 13.4527 9.72921C13.2711 10.1513 13.0555 10.5492 12.8051 10.9223C12.5554 11.2945 12.2723 11.639 11.955 11.9551C11.6388 12.2724 11.2943 12.5557 10.9221 12.8053C10.5492 13.0557 10.151 13.2714 9.7291 13.4529L9.72887 13.4524L9.72773 13.4529C9.29957 13.6359 8.85854 13.7728 8.40508 13.8635C7.95026 13.9545 7.48177 14 6.99994 14C6.51812 14 6.04951 13.9545 5.59469 13.8635C5.14659 13.7738 4.7108 13.6391 4.28742 13.4595C4.28184 13.4573 4.27626 13.4553 4.27067 13.4528C3.84855 13.2713 3.4507 13.0557 3.07756 12.8052C2.70546 12.5556 2.36092 12.2723 2.04476 11.955C1.72746 11.6388 1.44433 11.2943 1.1947 10.9222C0.944278 10.5492 0.728717 10.1512 0.547107 9.7291L0.547563 9.72887L0.547107 9.72785C0.364131 9.29969 0.227183 8.85876 0.136492 8.4052C0.0455733 7.95049 0 7.48199 0 6.99994C0 6.51812 0.0455733 6.04951 0.136606 5.59469C0.226271 5.14659 0.361054 4.7108 0.540613 4.28753C0.542664 4.28195 0.544829 4.27626 0.547221 4.27079C0.728831 3.84866 0.944279 3.4507 1.19482 3.07756C1.44456 2.70546 1.72768 2.36092 2.04487 2.04476C2.36104 1.72746 2.70557 1.44433 3.07768 1.19459C3.45081 0.944165 3.84878 0.728603 4.27079 0.546993L4.2709 0.547449L4.27193 0.546993C4.7002 0.364245 5.14124 0.227297 5.5948 0.136492ZM7.30688 1.05593V3.1891H9.33785C8.80419 2.48545 8.128 1.77451 7.30688 1.05593ZM7.30688 3.80264V6.69323H10.8299C10.7503 5.74394 10.3982 4.78052 9.76829 3.80264H7.30688ZM7.30688 7.30677V10.1974H9.87152C10.4786 9.24078 10.8045 8.27713 10.8435 7.30677H7.30688ZM7.30688 10.811V12.9703C8.1779 12.2544 8.89078 11.5346 9.44267 10.811H7.30688ZM6.69323 12.9705V10.811H4.55733C5.10911 11.5346 5.82199 12.2545 6.69323 12.9705ZM6.69323 10.1974V7.30677H3.15663C3.19548 8.27725 3.52133 9.24078 4.1286 10.1974H6.69323ZM6.69323 6.69323V3.80264H4.23182C3.60188 4.78052 3.24983 5.74406 3.17008 6.69323H6.69323ZM6.69323 3.1891V1.05571C5.87212 1.77428 5.19581 2.48545 4.66215 3.1891H6.69323Z" fill="black"/>
</g>
<defs>
<clipPath id="clip0_39_826">
<rect width="14" height="14" fill="white"/>
</clipPath>
</defs>
</svg>
