<svg width="21" height="20" viewBox="0 0 21 20" fill="none" xmlns="http://www.w3.org/2000/svg">
<g clip-path="url(#clip0_50_1832)">
<path d="M19.9219 9.96094C19.9219 15.4004 15.4102 19.9219 9.96094 19.9219C4.52148 19.9219 0 15.4004 0 9.96094C0 4.51172 4.51172 0 9.95117 0C15.4004 0 19.9219 4.51172 19.9219 9.96094ZM12.373 5.85938L9.99023 12.7441H9.92188L7.53906 5.85938C7.37305 5.38086 7.12891 5.16602 6.67969 5.16602C6.20117 5.16602 5.85938 5.48828 5.85938 5.9375C5.85938 6.08398 5.88867 6.20117 5.9375 6.35742L8.76953 13.7305C9.0332 14.4141 9.35547 14.6777 9.9707 14.6777C10.5469 14.6777 10.9082 14.375 11.1621 13.7109L13.9746 6.35742C14.0332 6.20117 14.0527 6.08398 14.0527 5.9375C14.0527 5.47852 13.7109 5.16602 13.2324 5.16602C12.7832 5.16602 12.5488 5.38086 12.373 5.85938Z" fill="#B8B8B8" fill-opacity="0.85"/>
</g>
<defs>
<clipPath id="clip0_50_1832">
<rect width="20.2832" height="19.9316" fill="white"/>
</clipPath>
</defs>
</svg>
