<svg width="14" height="14" viewBox="0 0 14 14" fill="none" xmlns="http://www.w3.org/2000/svg">
<path fill-rule="evenodd" clip-rule="evenodd" d="M13.918 9.94663C13.3947 10.9917 12.6283 11.8968 11.683 12.5865C10.7377 13.2761 9.64069 13.7303 8.48358 13.9112C7.32648 14.0921 6.14278 13.9944 5.03122 13.6263C3.91966 13.2582 2.91246 12.6303 2.09363 11.795C1.27479 10.9598 0.668064 9.94136 0.324042 8.8247C-0.0199797 7.70805 -0.0913206 6.52554 0.11597 5.3758C0.32326 4.22606 0.803173 3.14242 1.51568 2.21527C2.22819 1.28811 3.15264 0.544312 4.21192 0.0459108C4.54775 -0.110176 4.88816 0.149589 4.72253 0.555188C4.02789 1.76654 3.74835 3.17082 3.92631 4.55498C4.10428 5.93914 4.73005 7.22762 5.70867 8.22496C6.68729 9.22229 7.96536 9.87404 9.34897 10.0813C10.7326 10.2886 12.1462 10.0401 13.3754 9.37355L13.4314 9.34279C13.505 9.30385 13.5892 9.2895 13.6717 9.30184C13.7541 9.31418 13.8304 9.35255 13.8893 9.41133C13.9482 9.47011 13.9867 9.54618 13.9991 9.62838C14.0114 9.71058 13.997 9.79457 13.958 9.86802L13.918 9.94663ZM10.5608 8.50766H10.5083C10.4974 8.03427 10.3036 7.58335 9.96727 7.24916C9.63093 6.91497 9.1781 6.72336 8.70343 6.71437V6.65512C8.93859 6.65578 9.17138 6.6084 9.38748 6.51592C9.60358 6.42343 9.79841 6.28779 9.95996 6.11736C10.1302 5.95578 10.2658 5.76137 10.3585 5.54594C10.4512 5.3305 10.499 5.09854 10.4991 4.86411H10.5574C10.557 5.09861 10.6046 5.33072 10.6973 5.54622C10.79 5.76172 10.9259 5.95607 11.0965 6.11736C11.2583 6.28758 11.4531 6.42307 11.6692 6.51554C11.8852 6.60801 12.118 6.65551 12.3531 6.65512V6.71323C11.8806 6.72596 11.4311 6.91931 11.0975 7.2533C10.7639 7.58729 10.5718 8.03636 10.5608 8.50766ZM11.7134 3.19956H11.6825C11.6831 3.07568 11.6581 2.953 11.6092 2.83914C11.5603 2.72527 11.4884 2.62264 11.3981 2.53761C11.3131 2.4478 11.2106 2.3763 11.0968 2.32751C10.9831 2.27872 10.8605 2.25367 10.7367 2.25392V2.22316C10.8607 2.22311 10.9834 2.19771 11.0971 2.14852C11.2109 2.09934 11.3133 2.02741 11.3981 1.93719C11.488 1.85204 11.5595 1.74955 11.6084 1.63594C11.6573 1.52234 11.6825 1.40001 11.6825 1.27638H11.7134C11.7128 1.39968 11.7373 1.52182 11.7854 1.6354C11.8335 1.74898 11.9042 1.85165 11.9932 1.93719C12.0788 2.02696 12.1817 2.09841 12.2958 2.14718C12.4099 2.19596 12.5328 2.22103 12.6569 2.22088V2.25164C12.5326 2.25178 12.4096 2.27721 12.2955 2.32638C12.1814 2.37555 12.0786 2.44743 11.9932 2.53761C11.9029 2.62264 11.8311 2.72527 11.7821 2.83914C11.7332 2.953 11.7083 3.07568 11.7088 3.19956H11.7134ZM6.97285 4.11102H6.92602C6.92682 3.92296 6.88891 3.73675 6.81464 3.5639C6.74037 3.39105 6.63132 3.23524 6.49423 3.10613C6.36406 2.96925 6.20702 2.86058 6.03289 2.78687C5.85877 2.71317 5.6713 2.67603 5.48215 2.67775V2.63103C5.67069 2.63177 5.85737 2.59393 6.03066 2.51986C6.20395 2.44578 6.36017 2.33705 6.48966 2.20037C6.62658 2.07113 6.73553 1.91531 6.80979 1.74249C6.88405 1.56967 6.92205 1.38351 6.92145 1.19549H6.96828C6.96747 1.38344 7.00526 1.56956 7.07932 1.74239C7.15339 1.91521 7.26216 2.07108 7.39893 2.20037C7.52863 2.33708 7.68505 2.44582 7.85853 2.5199C8.03201 2.59397 8.21887 2.63179 8.40758 2.63103V2.67775C8.21887 2.67699 8.03201 2.71482 7.85853 2.78889C7.68505 2.86296 7.52863 2.9717 7.39893 3.10841C7.26216 3.2377 7.15339 3.39357 7.07932 3.56639C7.00526 3.73922 6.96747 3.92534 6.96828 4.11329L6.97285 4.11102Z" fill="black"/>
</svg>
