<svg width="14" height="14" viewBox="0 0 14 14" fill="none" xmlns="http://www.w3.org/2000/svg">
<path fill-rule="evenodd" clip-rule="evenodd" d="M6.97581 0C9.58622 1.50562 11.9444 2.21792 13.9684 2.04953C14.3218 8.55483 11.6816 12.3966 7.00286 14C2.48461 12.4993 -0.187903 8.8228 0.0103066 1.95086C2.38619 2.064 4.71712 1.59665 6.97581 0ZM5.19092 6.32358H5.37098V5.94408C5.37098 5.52378 5.55304 5.14074 5.84641 4.8624C6.14203 4.5819 6.55034 4.4077 7.0001 4.4077C7.44986 4.4077 7.8583 4.5819 8.1538 4.8624C8.44717 5.14074 8.62923 5.52378 8.62923 5.94408V6.32358H8.80928C8.9554 6.32358 9.0751 6.43239 9.0751 6.56546V9.12142C9.0751 9.25449 8.9554 9.3633 8.80928 9.3633H5.19092C5.04468 9.3633 4.9251 9.25449 4.9251 9.12142V6.56546C4.92497 6.43239 5.04468 6.32358 5.19092 6.32358ZM5.87433 6.32358H8.12575V5.94408C8.12575 5.64523 7.99791 5.37453 7.79194 5.17902C7.58822 4.98568 7.30787 4.86571 6.99998 4.86571C6.69221 4.86571 6.41173 4.98579 6.20814 5.17902C6.00204 5.37453 5.87433 5.64535 5.87433 5.94408V6.32358ZM6.78186 8.00728L6.495 8.69087H7.50495L7.23926 7.99793C7.40792 7.91898 7.52323 7.75902 7.52323 7.57456C7.52323 7.31161 7.28896 7.09844 6.99998 7.09844C6.71099 7.09844 6.47684 7.31161 6.47684 7.57456C6.47684 7.76654 6.60181 7.93197 6.78186 8.00728ZM6.97857 0.803792C9.28922 2.13646 11.3767 2.76707 13.1683 2.61794C13.481 8.37619 11.1441 11.777 7.00273 13.1961C3.00323 11.8678 0.637365 8.61362 0.812911 2.53055C2.91609 2.63081 4.97932 2.21712 6.97857 0.803792Z" fill="black"/>
</svg>
